<svg id="Capa_1" enable-background="new 0 0 511.855 511.855" height="512" viewBox="0 0 511.855 511.855" width="512" xmlns="http://www.w3.org/2000/svg"><g><path d="m472.428 75.09c-49.017-48.997-127.461-52.973-181.02-8.84-6.551 5.383-8.35 7.43-35.48 34.56-27.438-27.438-29.011-29.245-35.45-34.53-53.515-44.108-131.96-40.259-181.05 8.81-52.57 52.59-52.57 138.17 0 190.78 63.31 63.3 107.15 107.15 137.5 137.52 111.431-48.677 67.14-29.329 280.52-122.55 4.87-4.87 9.86-9.86 14.98-14.98 52.57-52.6 52.57-138.18 0-190.77z" fill="#ff405c"/><path d="m472.428 265.86c-5.12 5.12-10.11 10.11-14.98 14.98l-201.52 88.04v-268.07c26.514-26.513 28.895-29.149 35.48-34.56 53.461-44.052 131.913-40.247 181.02 8.84 52.57 52.59 52.57 138.17 0 190.77z" fill="#d0004f"/><path d="m360.318 133.4c-13.618 7.768-26.474 16.607-38.38 26.81-6.281 5.393-15.738 4.684-21.15-1.62-5.455-6.359-4.588-15.866 1.62-21.15 12.605-10.817 27.161-21.072 43.09-30.12 7.2-4.09 16.36-1.57 20.45 5.63 4.089 7.2 1.57 16.36-5.63 20.45z" fill="#bed5fc"/><path d="m436.867 205.88c0 .145-1.389 3.515-1.83 4.54-12.251 28.432-35.183 45.808-65.72 42.58-5.89 3.25-19.14 12.33-28.41 32.19-3.164 6.806-10.827 10.133-17.85 8.04-25.725-7.547-55.081-27.431-79.28-63.71-2.92-4.38-3.34-9.98-1.08-14.74 14.541-30.616 35.891-57.863 64.01-80.94h6.11c28.073 1.202 61.703 14.613 81.53 37.9 6.757 1.947 15.701 3.831 22.51 4.01 15.223.639 25.306 15.979 20.01 30.13z" fill="#d8e4fd"/><path d="m457.448 280.84c-167.452 167.452-189.022 189.213-190.64 190.63v.01c-4.352 4.526-10.386 5.653-15.36 4.06-4.34-1.446-6.808-4.385-10.31-7.88-30.628-30.628-53.461-53.521-64.21-64.27v-25.47c0-118.59-33.3-134.84-43.51-136.99-15.59-3.29-29.67-9.35-41.82-18.01-15.935-11.352-33.094-27.26-34.59-46.71-1.561-19.708 14.2-37.29 35.27-37.29h36.67c23.674-13.423 50.199-20.619 75.37-10.85 31.85 12.33 44.48 45.83 46.7 52.45 16.098 35.767 43.322 72.868 80.56 83.95 8.609 2.591 13.158 2.422 14.33 2.58 96.574 12.872 70.149 9.709 111.54 13.79z" fill="#79413d"/><g fill="#633332"><path d="m187.287 202.32c-7.032 4.242-16.284 2.036-20.59-5.11-12.52-20.77-13.14-45.18-12.33-58.22v-11.32c10.44-3.26 20.45-4.59 30-3.97 0 17.172.013 16.057-.03 16.76-.5 7.56-.72 26.71 8.06 41.27 4.27 7.09 1.99 16.31-5.11 20.59z"/><path d="m93.558 138.92v22.29c0 8.28-6.72 15-15 15h-21.55c-1.561-19.708 14.2-37.29 35.27-37.29z"/><path d="m457.448 280.84c-198.946 198.946-188.975 189.172-190.64 190.63 0 .137-4.278 4.71-10.59 4.71-.451 0-.29 13.591-.29-285.39 16.129 31.886 41.85 63.621 75.65 73.68 8.609 2.591 13.158 2.422 14.33 2.58 96.574 12.872 70.149 9.709 111.54 13.79z"/></g><path d="m436.867 205.88c0 .145-1.389 3.515-1.83 4.54-18.076 0-28.662-19.826-19.31-34.73.38.03.75.05 1.13.06 15.223.639 25.306 15.979 20.01 30.13z" fill="#bed5fc"/></g></svg>