<svg height="512" viewBox="0 0 512 512" width="512" xmlns="http://www.w3.org/2000/svg"><g id="_x34_9_Cabin"><g><g><path d="m494.4 259.6-161.4-36.5c-6.1 37.2-9.5 68.6-9.5 82.9 0 45.8 35.2 83.4 80 87.2l7.5-17.7 7.5 17.7c44.8-3.8 80-41.4 80-87.2 0-9.3-1.4-25.8-4.1-46.4z" fill="#2a950f"/><path d="m403.5 299.4 7.5-32.7 7.5 34.2h1.5c31.4 0 59-16.6 74.4-41.4-8.1-62.1-27.3-161.4-51.9-212.8 5.3 33.6 8.2 61.6 8.2 74.8 0 48.3-39.2 87.5-87.5 87.5-9.4 0-18.5-1.5-27.1-4.3-1.1 6.2-2.2 12.3-3.1 18.3 4.2 38.5 33.1 69.3 70.5 76.4z" fill="#38c714"/><path d="m411 13.5c-31.7 0-59.5 105.4-74.9 191.3 8.5 2.8 17.6 4.3 27.1 4.3 48.3 0 87.5-39.2 87.5-87.5 0-13.2-2.9-41.2-8.2-74.8-9.8-20.4-20.4-33.3-31.5-33.3z" fill="#60d243"/><path d="m403.5 393.2v70.3c0 4.1 3.4 7.5 7.5 7.5s7.5-3.4 7.5-7.5v-70.3l-7.5-4.7z" fill="#f69380"/><path d="m403.5 299.4v93.7c2.5.2 5 .3 7.5.3s5-.1 7.5-.3v-92.1c-5.1-.1-10.1-.6-15-1.6z" fill="#20700b"/><path d="m411 199.8c-4.1 0-7.5 3.4-7.5 7.5v92.2c4.9.9 9.9 1.5 15 1.5v-93.7c0-4.2-3.4-7.5-7.5-7.5z" fill="#2a950f"/></g><g><path d="m157.4 49.3-67.5 217.2c-2.5 21.1-3.9 37.8-3.9 46 0 36 26.3 65.7 60 69.6l7.5-7.4 7.5 7.4c33.7-3.9 60-33.5 60-69.6 0-37.3-28.1-248.3-63.6-263.2z" fill="#2a950f"/><path d="m146 259.4 7.5-32.4 7.5 19.3c10.6-12.4 17-28.6 17-46.4 0-19.8-7.9-88.2-20.6-150.5-1.3-.5-2.6-.8-3.9-.8-29.4 0-54.3 139.7-63.6 218 6.5 2.2 13.4 3.3 20.6 3.3 13-.1 25.2-3.9 35.5-10.5z" fill="#38c714"/><path d="m146 382.1v81.4c0 4.1 3.4 7.5 7.5 7.5s7.5-3.4 7.5-7.5v-81.4c-2.5.3-5-4.6-7.5-4.6s-5 4.8-7.5 4.6z" fill="#ed844d"/><path d="m146 259.4v122.7c2.5.3 5 .4 7.5.4s5-.2 7.5-.4v-135.8l-8.4.4z" fill="#20700b"/><path d="m153.5 216c-4.1 0-7.5 3.4-7.5 7.5v35.9c5.6-3.6 10.6-8 15-13.1v-22.8c0-4.1-3.4-7.5-7.5-7.5z" fill="#2a950f"/></g><g><path d="m99.2 333.1s0 .1 0 0l-85.2 43.3c2.6 20.3 17.8 36.4 37.1 39.7l6.9-6.9 8.1 6.9c21.3-3.7 37.5-22.9 37.5-46-.1-7.1-1.7-20.9-4.4-37z" fill="#38c714"/><path d="m99.2 333.1c-6.9-40.1-21.4-94.8-38.4-99.3l-47 129.5c-.2 2.7-.3 5-.3 6.9 0 2.1.1 4.2.4 6.3 8.9 7.2 20.2 11.5 32.4 11.5 1.6 0 3.1-.1 4.7-.2l6.9-8.3 8.1 4.5c19.4-8.1 33.2-27.8 33.2-50.9z" fill="#60d243"/><path d="m66 334.5c3.9-7.7 6.2-16.4 6.2-25.7 0-12.9-4.3-43.7-11.4-75-.7-.2-1.5-.3-2.2-.3-23.1 0-42.1 95.4-44.7 129.8 1.8.2 3.7.3 5.5.3 11.9 0 22.8-4.1 31.7-10.9l7.5-22z" fill="#a0e48e"/><path d="m51 416.2v47.3c0 4.1 3.4 7.5 7.5 7.5s7.5-3.4 7.5-7.5v-47.3l-7.5-4.3z" fill="#ed844d"/><path d="m51 387.7v28.4c2.4.4 4.9.7 7.5.7s5.1-.2 7.5-.7v-32.1l-8-1.4z" fill="#2a950f"/><path d="m51 352.7v35.1c5.3-.5 10.3-1.8 15-3.7v-49.5z" fill="#38c714"/><path d="m66 334.5v-7.7c0-4.1-3.4-7.5-7.5-7.5s-7.5 3.4-7.5 7.5v25.8c6.2-4.8 11.3-11 15-18.1z" fill="#60d243"/></g><path d="m256 146-42.2 90.5 42.2 17 42.2-17z" fill="#0cf"/><path d="m298.2 236.5h-42.2l-15.5 59.5h92.5z" fill="#75eeff"/><path d="m256 236.5h-42.2l-34.8 59.5h77z" fill="#c0f6ff"/><path d="m304.2 288.5-13.7-27.8c-6.8-13.7-21.8-18.5-34.5-14.6l-13.6 54.5z" fill="#c0f6ff"/><path d="m238.9 260.7-13.9 27.8 31.1 8v-50.4c-7.1 2.2-13.4 7-17.2 14.6z" fill="#e0f4ff"/><g fill="#ed844d"><path d="m393.5 463.5h-275c-9.7 0-17.5-7.8-17.5-17.5 0-9.7 7.8-17.5 17.5-17.5l137.5-22 137.5 22c9.7 0 17.5 7.8 17.5 17.5 0 9.7-7.8 17.5-17.5 17.5z"/><path d="m205.1 343.8-74.1 14.7v35l47 9.1z"/><path d="m346.1 405.6 34.9-12.1v-35l-53.1-9.8z"/></g><path d="m108.5 393.5h295v35h-295z" fill="#f4b594"/><path d="m338.8 358.5-76.6-14.7-72.3 14.7-17.6 35 89.9 13.7 89.9-13.7c0-5.1-1.2-10.4-3.7-15.5z" fill="#f4b594"/><path d="m356 323.5v-35h-51.8v44.6z" fill="#ed844d"/><path d="m224.9 288.5h-68.9v35l68.9 11z" fill="#ed844d"/><path d="m321.8 358.5h54.2v-35h-54.5z" fill="#f4b594"/><path d="m207.4 323.5h-71.4v35h71.8z" fill="#f4b594"/><path d="m321.5 323.5-17.3-35h-79.3l-17.5 35 57 17.5z" fill="#f4b594"/><path d="m352.1 393.5h-179.8l-4.8 9.7c-5.8 11.6 2.6 25.3 15.6 25.3h134c20.2 0 35-16.6 35-35z" fill="#ffcdbe"/><path d="m321.5 323.5h-114.1l-17.6 35h149z" fill="#ffcdbe"/><path d="m242 111.5-147.2 294.3c-5.2 10.4 2.4 22.7 14 22.7 5.9 0 11.3-3.3 14-8.7l126.1-252c2.8-5.5 10.6-5.5 13.4 0l126.9 252.1c2.7 5.3 8.1 8.6 14 8.6 11.6 0 19.2-12.2 14-22.7l-147.2-294.3c-5.8-11.5-22.2-11.5-28 0z" fill="#fcf0ac"/><path d="m256 358.5c-19.3 0-35 15.7-35 35v70h70v-70c0-19.3-15.7-35-35-35z" fill="#facf23"/><path d="m256 358.5c-19.3 0-35 15.7-35 35v50.1h32.5c9.7 0 17.5-7.8 17.5-17.5v-52.6c0-8.3-6.7-15-15-15z" fill="#fcf0ac"/><path d="m498.5 471h-485c-4.1 0-7.5-3.4-7.5-7.5s3.4-7.5 7.5-7.5h485c4.1 0 7.5 3.4 7.5 7.5s-3.4 7.5-7.5 7.5z" fill="#f4b594"/></g></g></svg>