<svg id="Layer_3" enable-background="new 0 0 64 64" height="512" viewBox="0 0 64 64" width="512" xmlns="http://www.w3.org/2000/svg"><path d="m9 21h2v4h-2z" fill="#928fa1"/><path d="m47 21h2v4h-2z" fill="#928fa1"/><path d="m54 54h8v-13l-4.54-12.107c-.878-2.342-3.117-3.893-5.618-3.893h-43.842c-3.314 0-6 2.686-6 6v23h8" fill="#ca6b4a"/><path d="m21 48v-19h18v21h-16" fill="#db8c74"/><circle cx="47" cy="54" fill="#928fa1" r="7"/><circle cx="17" cy="54" fill="#928fa1" r="7"/><circle cx="47" cy="54" fill="#e8e8e8" r="3"/><circle cx="17" cy="54" fill="#e8e8e8" r="3"/><path d="m2 43h4v11h-4z" fill="#bf5763"/><path d="m58 44h4v10h-4z" fill="#f1b869"/><path d="m21 29h18v10h-18z" fill="#74a2d9"/><path d="m43 39h13l-2.572-8.575c-.254-.846-1.033-1.425-1.916-1.425h-8.512z" fill="#74a2d9"/><path d="m8 29h9v10h-9z" fill="#74a2d9"/><g fill="#e8e8e8"><path d="m8 33.354c2.791.614 5.813 1.073 9 1.348v-5.702h-9z"/><path d="m21 34.943c.989.035 1.988.057 3 .057 5.385 0 10.475-.518 15-1.435v-4.565h-18z"/><path d="m51.811 29.049c-.1-.016-.195-.049-.299-.049h-8.512v3.612c3.439-.956 6.424-2.167 8.811-3.563z"/></g><circle cx="44" cy="15" fill="#eb6a80" r="6"/><circle cx="44" cy="15" fill="#e34a60" r="2"/><path d="m24 11h-12c-1.105 0-2 .895-2 2v6c0 1.105.895 2 2 2h12c1.105 0 2-.895 2-2v-6c0-1.105-.895-2-2-2z" fill="#eb6a80"/><path d="m34 11h-6c-1.105 0-2 .895-2 2v6c0 1.105.895 2 2 2h6c1.105 0 2-.895 2-2v-6c0-1.105-.895-2-2-2z" fill="#317dc9"/><path d="m20 3h-6c-1.105 0-2 .895-2 2v4c0 1.105.895 2 2 2h6c1.105 0 2-.895 2-2v-4c0-1.105-.895-2-2-2z" fill="#317dc9"/><path d="m42 42h4v2h-4z" fill="#e8e8e8"/><path d="m9 42h12v2h-12z" fill="#e8e8e8"/><path d="m7 20h44v2h-44z" fill="#c8af8f"/><path d="m24 17h-2v-2h-8v-2h9c.553 0 1 .447 1 1z" fill="#e34a60"/></svg>