<svg id="Capa_1" enable-background="new 0 0 497 497" height="512" viewBox="0 0 497 497" width="512" xmlns="http://www.w3.org/2000/svg"><g fill="#5b9b40"><path d="m30 234.5c-4.142 0-7.5 3.358-7.5 7.5v30h15v-30c0-4.142-3.358-7.5-7.5-7.5z"/><path d="m60 234.5c-4.142 0-7.5 3.358-7.5 7.5v30h15v-30c0-4.142-3.358-7.5-7.5-7.5z"/><path d="m332 234.5c-4.142 0-7.5 3.358-7.5 7.5v30h15v-30c0-4.142-3.358-7.5-7.5-7.5z"/><path d="m362 234.5c-4.142 0-7.5 3.358-7.5 7.5v30h15v-30c0-4.142-3.358-7.5-7.5-7.5z"/><path d="m437 234.5c-4.142 0-7.5 3.358-7.5 7.5v30h15v-30c0-4.142-3.358-7.5-7.5-7.5z"/><path d="m467 257h22.5c4.142 0 7.5 3.358 7.5 7.5v225c0 4.142-3.358 7.5-7.5 7.5h-22.5l-60-120.25z"/></g><path d="m467 257h-459.5c-4.142 0-7.5 3.358-7.5 7.5v225c0 4.142 3.358 7.5 7.5 7.5h459.5z" fill="#70ae3e"/><path d="m392 120h-30v30h30c8.284 0 15-6.716 15-15s-6.715-15-15-15z" fill="#7cf0ee"/><path d="m302 130-30 50h30c16.569 0 30-13.431 30-30z" fill="#7cf0ee"/><path d="m362 120h-287c-16.569 0-30 13.431-30 30h-30c-8.284 0-15 6.716-15 15s6.716 15 15 15h257c16.569 0 30-13.431 30-30h60c8.284 0 15-6.716 15-15s-6.715-15-15-15z" fill="#bdf7f7"/><path d="m391.604 75 60.965-15h-.647c-.22-16.632-13.765-30-30.399-30l-29.919.002z" fill="#7cf0ee"/><path d="m226.683 60 60.965-30h-.648c-.22-16.632-13.765-30-30.399-30l-29.919.002v59.998z" fill="#7cf0ee"/><path d="m496.89 73.171c-.912-7.599-7.633-13.171-15.286-13.171h-29.802v30h30.198c8.853 0 15.978-7.772 14.89-16.829z" fill="#7cf0ee"/><path d="m466.89 73.171c-.912-7.599-7.435-13.171-15.088-13.171h-30c0-16.569-13.63-30-30.198-30l-134.604-.002c-.219-16.605-13.721-29.954-30.317-29.998h-151.287c-16.569 0-30 13.431-30 30h-30c-7.653 0-14.374 5.572-15.286 13.171-1.088 9.057 6.038 16.829 14.89 16.829h139.857c0 16.568 13.431 30 30 30h266.945c8.852 0 16.176-7.772 15.088-16.829z" fill="#bdf7f7"/><path d="m218.5 444.5c-4.142 0-7.5-3.358-7.5-7.5v-15c0-4.142 3.358-7.5 7.5-7.5s7.5 3.358 7.5 7.5v15c0 4.142-3.358 7.5-7.5 7.5z" fill="#5b9b40"/><path d="m30 459.5c-4.142 0-7.5-3.358-7.5-7.5v-15c0-4.142 3.358-7.5 7.5-7.5s7.5 3.358 7.5 7.5v15c0 4.142-3.358 7.5-7.5 7.5z" fill="#5b9b40"/><path d="m60 474.5c-4.142 0-7.5-3.358-7.5-7.5v-15c0-4.142 3.358-7.5 7.5-7.5s7.5 3.358 7.5 7.5v15c0 4.142-3.358 7.5-7.5 7.5z" fill="#5b9b40"/><path d="m188.487 459.5c-4.142 0-7.5-3.358-7.5-7.5v-15c0-4.142 3.358-7.5 7.5-7.5s7.5 3.358 7.5 7.5v15c0 4.142-3.358 7.5-7.5 7.5z" fill="#5b9b40"/><path d="m158.5 444.5c-4.142 0-7.5-3.358-7.5-7.5v-15c0-4.142 3.358-7.5 7.5-7.5s7.5 3.358 7.5 7.5v15c0 4.142-3.358 7.5-7.5 7.5z" fill="#5b9b40"/><path d="m60 369.494c-4.142 0-7.5-3.358-7.5-7.5v-15c0-4.142 3.358-7.5 7.5-7.5s7.5 3.358 7.5 7.5v15c0 4.142-3.358 7.5-7.5 7.5z" fill="#5b9b40"/><path d="m467 459.5c-4.142 0-7.5-3.358-7.5-7.5v-15c0-4.142 3.358-7.5 7.5-7.5s7.5 3.358 7.5 7.5v15c0 4.142-3.358 7.5-7.5 7.5z" fill="#468943"/><path d="m467 309.5c-4.142 0-7.5-3.358-7.5-7.5v-15c0-4.142 3.358-7.5 7.5-7.5s7.5 3.358 7.5 7.5v15c0 4.142-3.358 7.5-7.5 7.5z" fill="#468943"/><path d="m362 384.494c-4.142 0-7.5-3.358-7.5-7.5v-15c0-4.142 3.358-7.5 7.5-7.5s7.5 3.358 7.5 7.5v15c0 4.142-3.358 7.5-7.5 7.5z" fill="#5b9b40"/><path d="m392 369.494c-4.142 0-7.5-3.358-7.5-7.5v-15c0-4.142 3.358-7.5 7.5-7.5s7.5 3.358 7.5 7.5v15c0 4.142-3.358 7.5-7.5 7.5z" fill="#5b9b40"/><path d="m437 474.5c-4.142 0-7.5-3.358-7.5-7.5v-15c0-4.142 3.358-7.5 7.5-7.5s7.5 3.358 7.5 7.5v15c0 4.142-3.358 7.5-7.5 7.5z" fill="#5b9b40"/><path d="m302 324.5c-4.142 0-7.5-3.358-7.5-7.5v-15c0-4.142 3.358-7.5 7.5-7.5s7.5 3.358 7.5 7.5v15c0 4.142-3.358 7.5-7.5 7.5z" fill="#5b9b40"/></svg>