<svg id="Capa_1" enable-background="new 0 0 512 512" height="512" viewBox="0 0 512 512" width="512" xmlns="http://www.w3.org/2000/svg"><g><g><g><circle cx="256" cy="256" fill="#fe646f" r="256"/></g><g><path d="m417.613 57.47c35.921 44.073 57.47 100.323 57.47 161.613 0 141.385-114.615 256-256 256-61.29 0-117.541-21.549-161.613-57.47 46.942 57.595 118.435 94.387 198.53 94.387 141.385 0 256-114.615 256-256 0-80.095-36.792-151.588-94.387-198.53z" fill="#fd4755"/></g><g><circle cx="256" cy="256" fill="#5a5a5a" r="228.943"/></g><g><g><path d="m256 93.171c-4.143 0-7.5-3.358-7.5-7.5v-58.614c0-4.142 3.357-7.5 7.5-7.5s7.5 3.358 7.5 7.5v58.614c0 4.142-3.357 7.5-7.5 7.5z" fill="#c5d3dd"/></g><g><path d="m256 398.883c-4.143 0-7.5-3.358-7.5-7.5v-271.344c0-4.142 3.357-7.5 7.5-7.5s7.5 3.358 7.5 7.5v271.344c0 4.142-3.357 7.5-7.5 7.5z" fill="#c5d3dd"/></g><g><path d="m256 492.443c-4.143 0-7.5-3.358-7.5-7.5v-56.195c0-4.142 3.357-7.5 7.5-7.5s7.5 3.358 7.5 7.5v56.195c0 4.142-3.357 7.5-7.5 7.5z" fill="#c5d3dd"/></g><g><path d="m311.498 225.912c-4.143 0-7.5-3.358-7.5-7.5v-184.58c0-4.142 3.357-7.5 7.5-7.5s7.5 3.358 7.5 7.5v184.58c0 4.142-3.357 7.5-7.5 7.5z" fill="#c5d3dd"/></g><g><path d="m311.498 485.668c-4.143 0-7.5-3.358-7.5-7.5v-228.336c0-4.142 3.357-7.5 7.5-7.5s7.5 3.358 7.5 7.5v228.336c0 4.143-3.357 7.5-7.5 7.5z" fill="#c5d3dd"/></g><g><path d="m367.006 201.851c-4.143 0-7.5-3.358-7.5-7.5v-138.624c0-4.142 3.357-7.5 7.5-7.5s7.5 3.358 7.5 7.5v138.624c0 4.142-3.358 7.5-7.5 7.5z" fill="#c5d3dd"/></g><g><path d="m367.006 463.773c-4.143 0-7.5-3.358-7.5-7.5v-150.806c0-4.142 3.357-7.5 7.5-7.5s7.5 3.358 7.5 7.5v150.806c0 4.142-3.358 7.5-7.5 7.5z" fill="#c5d3dd"/></g><g><path d="m422.504 273.376c-4.143 0-7.5-3.358-7.5-7.5v-166.993c0-4.142 3.357-7.5 7.5-7.5s7.5 3.358 7.5 7.5v166.993c0 4.142-3.358 7.5-7.5 7.5z" fill="#c5d3dd"/></g><g><path d="m422.504 420.617c-4.143 0-7.5-3.358-7.5-7.5v-119.475c0-4.142 3.357-7.5 7.5-7.5s7.5 3.358 7.5 7.5v119.476c0 4.141-3.358 7.499-7.5 7.499z" fill="#c5d3dd"/></g><g><path d="m200.502 93.171c-4.143 0-7.5-3.358-7.5-7.5v-51.839c0-4.142 3.357-7.5 7.5-7.5s7.5 3.358 7.5 7.5v51.839c0 4.142-3.357 7.5-7.5 7.5z" fill="#c5d3dd"/></g><g><path d="m200.502 273.376c-4.143 0-7.5-3.358-7.5-7.5v-151.675c0-4.142 3.357-7.5 7.5-7.5s7.5 3.358 7.5 7.5v151.675c0 4.142-3.357 7.5-7.5 7.5z" fill="#c5d3dd"/></g><g><path d="m200.502 485.668c-4.143 0-7.5-3.358-7.5-7.5v-73.033c0-4.142 3.357-7.5 7.5-7.5s7.5 3.358 7.5 7.5v73.033c0 4.143-3.357 7.5-7.5 7.5z" fill="#c5d3dd"/></g><g><path d="m144.994 123.115c-4.143 0-7.5-3.358-7.5-7.5v-59.888c0-4.142 3.357-7.5 7.5-7.5s7.5 3.358 7.5 7.5v59.888c0 4.142-3.357 7.5-7.5 7.5z" fill="#c5d3dd"/></g><g><path d="m144.994 263.794c-4.143 0-7.5-3.358-7.5-7.5v-82.654c0-4.142 3.357-7.5 7.5-7.5s7.5 3.358 7.5 7.5v82.654c0 4.143-3.357 7.5-7.5 7.5z" fill="#c5d3dd"/></g><g><path d="m144.994 463.773c-4.143 0-7.5-3.358-7.5-7.5v-77.882c0-4.142 3.357-7.5 7.5-7.5s7.5 3.358 7.5 7.5v77.882c0 4.142-3.357 7.5-7.5 7.5z" fill="#c5d3dd"/></g><g><path d="m89.496 420.617c-4.143 0-7.5-3.358-7.5-7.5v-314.234c0-4.142 3.357-7.5 7.5-7.5s7.5 3.358 7.5 7.5v314.234c0 4.142-3.357 7.5-7.5 7.5z" fill="#c5d3dd"/></g></g><g><g><path d="m109.778 217.834c-8.347-2.155-17.398-11.709-15.243-20.056s16.259-18.373 24.607-16.218 15.838 17.754 13.683 26.102-14.699 12.327-23.047 10.172z" fill="#a74b30"/></g><g><path d="m315.808 140.496c-4.784 7.172-16.787 12.57-23.958 7.786s-11.991-21.404-7.207-28.576 21.981-9.105 29.152-4.32c7.172 4.783 6.797 17.938 2.013 25.11z" fill="#a74b30"/></g><g><path d="m222.077 131.427c9.582 0 18.666 2.17 26.789 6.043 11.984 5.716 26.254 3.353 35.643-6.035l.028-.028c15.092-15.092 11.034-40.751-8.182-50.039-16.413-7.933-34.825-12.38-54.277-12.38-54.383 0-100.647 34.763-117.782 83.28-7.171 20.304 7.924 41.598 29.457 41.598 13.108 0 25.026-8.108 29.338-20.487 8.497-24.397 31.73-41.952 58.986-41.952z" fill="#d6694b"/></g><g><path d="m276.354 81.368c-16.413-7.933-34.825-12.38-54.277-12.38-1.857 0-3.702.049-5.539.129 1.919 7.97 2.942 16.288 2.942 24.847 0 13.48-2.527 26.368-7.124 38.224 3.169-.497 6.414-.761 9.72-.761 9.582 0 18.666 2.17 26.789 6.043 11.984 5.716 26.254 3.353 35.643-6.035l.028-.028c15.092-15.092 11.034-40.751-8.182-50.039z" fill="#c4573a"/></g></g><g><g><path d="m121.096 391.037c21.004 12.393 73.391 43.305 89.626 52.885 22.274 13.143 50.986 5.741 64.13-16.533 13.143-22.275 5.741-50.986-16.533-64.13-30.03-17.72-6.133-88.2-52.606-115.623-39.599-23.366-90.642-10.206-114.008 29.393-23.368 39.599-10.209 90.642 29.391 114.008z" fill="#fecec8"/></g><g><path d="m258.317 363.259c-29.261-17.266-7.333-84.619-49.185-113.427 6.975 17.121 10.828 35.845 10.828 55.473 0 45.361-20.534 85.921-52.807 112.909 17.943 10.588 35.367 20.869 43.567 25.707 22.275 13.143 50.986 5.741 64.13-16.533s5.742-50.986-16.533-64.129z" fill="#fec0b7"/></g><g><path d="m136.96 364.149c-24.71-14.58-32.951-46.545-18.37-71.255s46.545-32.951 71.255-18.37c12.02 7.092 15.03 22.332 18.558 46.587 3.47 23.854 7.79 53.541 34.048 69.035 7.413 4.374 9.885 13.964 5.511 21.377s-13.963 9.885-21.377 5.511z" fill="#ee6161"/></g><g><path d="m247.963 411.523c4.374-7.413 1.902-17.002-5.511-21.377-16.733-9.874-24.551-25.512-28.924-41.73-5.231 17.087-13.482 32.851-24.142 46.667l37.201 21.951c7.412 4.374 17.002 1.902 21.376-5.511z" fill="#e94444"/></g></g><g><g><path d="m351.198 183.076c-40.864 0-75.874 25.056-90.507 60.643-7.268 17.675 5.771 37.07 24.882 37.07 10.992 0 20.985-6.65 24.953-16.9.125-.323.261-.641.393-.96-2.274 5.505-3.535 11.535-3.535 17.861 0 39.082 31.682 70.764 70.764 70.764s70.764-31.682 70.764-70.764l.107.108c.001-54.026-43.795-97.822-97.821-97.822z" fill="#e8ad8c"/></g><g><path d="m424.188 215.779c.358 3.911.55 7.87.55 11.875 0 52.313-31.19 97.338-75.987 117.501 8.956 4.097 18.905 6.398 29.397 6.398 39.082 0 70.764-31.682 70.764-70.764l.107.108c.001-25.01-9.39-47.823-24.831-65.118z" fill="#e19974"/></g></g><g><circle cx="158.654" cy="316.534" fill="#fecec8" r="7.5"/></g></g><g><path d="m376.12 313.211c-17.878 0-32.422-14.544-32.422-32.422 0-4.142 3.357-7.5 7.5-7.5s7.5 3.358 7.5 7.5c0 9.606 7.815 17.422 17.422 17.422s17.422-7.815 17.422-17.422c0-21.687-17.643-39.33-39.329-39.33s-39.329 17.643-39.329 39.33c0 4.142-3.357 7.5-7.5 7.5s-7.5-3.358-7.5-7.5c0-29.958 24.372-54.33 54.329-54.33s54.329 24.372 54.329 54.33c0 17.878-14.544 32.422-32.422 32.422z" fill="#dc8758"/></g></g></svg>