<svg height="512" viewBox="0 0 96 96" width="512" xmlns="http://www.w3.org/2000/svg"><g id="Check_Out" data-name="Check Out"><path d="m42.16 21.32h-28.56v-6.91a14.28 14.28 0 1 1 28.56 0z" fill="#52527b"/><path d="m42.16 14.4v3.19a14.28 14.28 0 1 0 -28.56 0v-3.19a14.28 14.28 0 1 1 28.56 0z" fill="#7a7599"/><path d="m49.69 65.61h-43.53c3.2-17 3-17.7 4.57-20.48a15.69 15.69 0 0 1 13.35-7.9h7.82a15.33 15.33 0 0 1 14.94 12.46c2.46 13.72 1.83 10.17 2.85 15.92z" fill="#3eb1f8"/><path d="m7.79 73.19c4.75-25.33 4.38-24.43 5.58-26.63a11.55 11.55 0 0 1 4-4.24 11.86 11.86 0 0 1 6.68-2.1h7.83a11.85 11.85 0 0 1 6.65 2.09 11.55 11.55 0 0 1 5.33 7.89l4.11 23z" fill="#3e70da"/><path d="m39.13 39.15v37h-22.28v-37a14.5 14.5 0 0 1 6.85-1.92h8.21a14.49 14.49 0 0 1 7.22 1.92z" fill="#34a0a4"/><path d="m36.13 55.61v-8.11a2.47 2.47 0 0 0 -2-2.43 13 13 0 0 0 -2-.22c-7.56 0-8.66-.1-10.28.22a2.48 2.48 0 0 0 -2 2.44v8.1z" fill="#20789a"/><path d="m39.13 39.15v3.85a14.29 14.29 0 0 0 -6.84-2h-8.21a14.51 14.51 0 0 0 -7.23 2v-3.85a14.47 14.47 0 0 1 6.85-1.92h8.21a14.5 14.5 0 0 1 7.22 1.92z" fill="#52d2d6"/><path d="m28 77.19a1 1 0 0 1 -1-1v-29.65a1 1 0 1 1 2 0v29.65a1 1 0 0 1 -1 1z" fill="#3e70da"/><path d="m32.29 37.23v5.55l-4.29 6.22-4.3-6.19v-5.58z" fill="#3eb1f8"/><path d="m32.29 37.59a5.26 5.26 0 0 1 -8.6 0v-6.21h8.6z" fill="#f8ad9d"/><rect fill="#f8ad9d" height="4.65" rx="2.32" width="28.78" x="13.6" y="18.57"/><path d="m28 33.89a10.8 10.8 0 0 1 -10.8-10.79v-5a10.8 10.8 0 1 1 21.59 0v5a10.79 10.79 0 0 1 -10.79 10.79z" fill="#fbc4ab"/><path d="m30.83 27.81a4.33 4.33 0 0 1 -5.67 0" fill="#fff"/><g fill="#302d3d"><path d="m24.5 28.56a1 1 0 1 1 1.31-1.51 3.39 3.39 0 0 0 4.36 0 1 1 0 0 1 1.42.1 1 1 0 0 1 -.1 1.41 5.33 5.33 0 0 1 -6.99 0z"/><path d="m32.27 21.89a1 1 0 0 1 -1-1v-.47a1 1 0 0 1 2 0v.47a1 1 0 0 1 -1 1z"/><path d="m33.36 18.84h-2.18a1 1 0 0 1 0-2h2.18a1 1 0 0 1 0 2z"/><path d="m23.72 21.89a1 1 0 0 1 -1-1v-.47a1 1 0 0 1 2 0v.47a1 1 0 0 1 -1 1z"/><path d="m24.81 18.84h-2.18a1 1 0 0 1 0-2h2.18a1 1 0 0 1 0 2z"/><path d="m42.29 75.78a1 1 0 0 1 -1-.84l-3.14-19.52a1 1 0 0 1 .85-1.14 1 1 0 0 1 1.14.83c.54 3.52-.09-.44 3.15 19.51a1 1 0 0 1 -1 1.16z"/><path d="m13.89 75.78a1 1 0 0 1 -1-1.15l2.95-19.52a1 1 0 0 1 1.16-.83 1 1 0 0 1 .84 1.14c-.31 1.95.15-1-3 19.51a1 1 0 0 1 -.95.85z"/></g><path d="m25.15 53.6h-13.95a4.76 4.76 0 0 0 -4.76 4.76 3 3 0 0 0 3 3h15.71z" fill="#3eb1f8"/><path d="m25.15 53.6v2.67h-13.95a4.77 4.77 0 0 0 -4.52 3.26c-1-2.28 1-5.93 4.52-5.93z" fill="#5ce3f8"/><path d="m29.71 61.33h-4.56v-6h3.23a3.53 3.53 0 0 1 3 1.73l.37.62a2.41 2.41 0 0 1 -2.04 3.65z" fill="#f8947f"/><path d="m30.67 53.6h13.95a4.77 4.77 0 0 1 4.76 4.76 3 3 0 0 1 -3 3h-15.71z" fill="#3eb1f8"/><path d="m49.13 59.53a4.77 4.77 0 0 0 -4.52-3.26h-13.94v-2.67h13.94c3.52 0 5.52 3.69 4.52 5.93z" fill="#5ce3f8"/><path d="m26.11 61.33h4.56v-6h-3.23a3.53 3.53 0 0 0 -3 1.73l-.37.62a2.41 2.41 0 0 0 2.04 3.65z" fill="#fbc4ab"/><rect fill="#fff" height="3.64" rx=".94" width="5.5" x="33.63" y="46.54"/><path d="m17.2 17.63 3-1.39a5.42 5.42 0 0 0 3.18-4.94v-7l-6.18 4.84z" fill="#52527b"/><path d="m23.42 4.31v3.11c0 4.25 3.83 7.31 7.93 7.31h4.26a3.18 3.18 0 0 1 3.18 3.18v-8.18l-7.19-5.42z" fill="#52527b"/><rect fill="#fff" height="4.3" rx="1.9" width="94.1" x=".95" y="61.17"/><path d="m95.05 63.08v.5a1.9 1.9 0 0 1 -1.9 1.9h-90.29a1.9 1.9 0 0 1 -1.86-1.9v-.5a1.91 1.91 0 0 1 1.91-1.91h90.24a1.91 1.91 0 0 1 1.9 1.91z" fill="#f4a261"/><path d="m46.36 63.08v.5a1.9 1.9 0 0 1 -1.9 1.9h-20.58a1.9 1.9 0 0 1 -1.88-1.9v-.5a1.91 1.91 0 0 1 1.91-1.91h20.55a1.91 1.91 0 0 1 1.9 1.91z" fill="#f4ca93"/><path d="m95.05 63.08v.5a1.9 1.9 0 0 1 -1.9 1.9h-36.62a1.9 1.9 0 0 1 -1.91-1.9v-.5a1.91 1.91 0 0 1 1.91-1.91h36.62a1.91 1.91 0 0 1 1.9 1.91z" fill="#f46b4d"/><path d="m6.4 65.48h83.19v30.29h-83.19z" fill="#34a0a4"/><path d="m44.23 70.48h-29.86a3 3 0 0 0 -3 3v14.32a3 3 0 0 0 3 3h26.21a3 3 0 0 0 2.87-2.23l3.66-14.36a3 3 0 0 0 -2.88-3.73z" fill="#34d7c8"/><path d="m48.05 95.76 8.67-30.29h32.88v30.29z" fill="#346e90"/><circle cx="73.13" cy="26.93" fill="#fbc4ab" r="10.94"/><rect fill="#f46b4d" height="5.38" rx="2.15" width="24.16" x="57.16" y="65.95"/><rect fill="#b83e4d" height="5.38" rx="2.15" width="12.9" x="57.16" y="65.95"/><path d="m91.26 95.69h-11.26l-.91-6a9.08 9.08 0 0 0 -2.09-4.69l-12.45-13.67h15.45l6.24 7.39a16.1 16.1 0 0 1 3.68 8z" fill="#7a7aad"/><path d="m86.28 95.69h-6.28l-.91-6a9.08 9.08 0 0 0 -2.09-4.69l-12.45-13.67h10.45l6.24 7.39a16 16 0 0 1 3.67 8z" fill="#52527b"/><path d="m82.13 95.69h-2.13l-.91-6a9.08 9.08 0 0 0 -2.09-4.69l-12.45-13.67h6.32l6.24 7.39a16 16 0 0 1 3.67 8z" fill="#3e3962"/><path d="m69.24 71.33v12.67c0 5.31-2.32 8.32-4.45 11.73h-13.12l5-8.07a9.34 9.34 0 0 0 1.4-4.89v-11.44z" fill="#3e3962"/><path d="m80 48v18h-21.5v-18a10.17 10.17 0 0 1 7.88-9.9 13 13 0 0 1 3.46-.26 10.16 10.16 0 0 1 10.16 10.16z" fill="#eed264"/><path d="m74.26 48v18h-15.76v-18c0-11.3 15.76-11.35 15.76 0z" fill="#eec34b"/><path d="m58.5 50.1h6.75v15.86h-6.75z" fill="#ee874b"/><path d="m61.78 80.09h-10.05a1 1 0 0 1 -1-1.24l.73-2.9a3.42 3.42 0 0 1 3.33-2.6h3.87a3.44 3.44 0 0 1 3.34 2.65l.72 2.9a1 1 0 0 1 -.94 1.19zm-8.77-2h7.49l-.41-1.65a1.44 1.44 0 0 0 -1.4-1.09h-3.87a1.43 1.43 0 0 0 -1.39 1.09z" fill="#769df9"/><path d="m71.27 80.92v15h-29v-15a2.81 2.81 0 0 1 2.8-2.8h23.4a2.8 2.8 0 0 1 2.8 2.8z" fill="#f4d499"/><path d="m71.27 86.23v9.65h-29v-9.66a2.81 2.81 0 0 1 2.8-2.8h23.4a2.8 2.8 0 0 1 2.8 2.81z" fill="#f4a261"/><rect fill="#52527b" height="3.25" rx=".58" width="5.5" x="62.24" y="81.88"/><path d="m54.6 68.11h4.32a1.84 1.84 0 0 1 1.84 1.84v1.75a3.14 3.14 0 0 1 -3.14 3.14h-1.72a3.14 3.14 0 0 1 -3.14-3.14v-1.75a1.84 1.84 0 0 1 1.84-1.84z" fill="#fbc4ab"/><path d="m62.67 39.79-7.26 6.91a10.29 10.29 0 0 0 -3.2 7.3l-.29 15.85 8.25-2.11.9-13.26 6.14-5.57z" fill="#eec34b"/><path d="m57.15 65.91 3.21-.82-.18 2.63-8.26 2.11.29-15.83a10.35 10.35 0 0 1 3.2-7.29l2.42-2.3a10.38 10.38 0 0 0 -2.15 6.12l-.26 14a1.39 1.39 0 0 0 1.73 1.38z" fill="#ee874b"/><path d="m66.14 59.28c-.65 7-.58 6.49-.66 6.68h-1.86c-.13-.31-.12 0 .53-6.87a1 1 0 1 1 2 .19z" fill="#ee554b"/><path d="m68.58 34 3.42-3.47a8.64 8.64 0 0 0 2.54-6.12 4.11 4.11 0 0 1 3.18-4l3.08-.72a2 2 0 0 0 .94-3.3l-1.09-1.09a13.14 13.14 0 0 0 -9.3-3.85 12.16 12.16 0 0 0 -12.16 12.15v4.16a8.1 8.1 0 0 0 2 5.29l.57.66a4.68 4.68 0 0 0 6.82.29z" fill="#3e436c"/><path d="m67.91 26a1.6 1.6 0 0 0 1.63-1.53 9.12 9.12 0 0 1 2.67-6.48.86.86 0 0 0 -.54-1.49 7.34 7.34 0 0 0 -7.48 7.39v.48a1.63 1.63 0 0 0 1.63 1.63z" fill="#7a7599"/><path d="m59.89 46.23c1.44-1.12 3.66-2.82 5-3.8a1.14 1.14 0 0 1 1.68.33l.53.9a1.15 1.15 0 0 1 -.24 1.46l-2.92 2.49a2.86 2.86 0 0 1 -2.68.56l-1-.3a.94.94 0 0 1 -.37-1.64z" fill="#fff"/><rect fill="#fff" height="2.99" rx="1.5" width="14.96" x="48.66" y="87.77"/></g></svg>