<svg enable-background="new 0 0 512 512" height="512" viewBox="0 0 512 512" width="512" xmlns="http://www.w3.org/2000/svg"><g id="_x34_5_x2C__check_in_x2C__time_x2C__login_x2C__location_x2C__pin"><g><g><g><path d="m1 157.122v312.245c0 17.246 13.978 31.224 31.224 31.224h447.551c17.246 0 31.224-13.978 31.224-31.224v-312.245l-263.327-36.429z" fill="#e5e4ef"/><path d="m479.776 53.041h-447.552c-17.246 0-31.224 13.978-31.224 31.224v72.857h510v-72.857c0-17.246-13.978-31.224-31.224-31.224z" fill="#f5dd51"/><path d="m448.551 375.694v41.633h-197.755v31.224l-52.041-52.041 52.041-52.041v31.225z" fill="#df697d"/><path d="m105.082 73.857c0 12.349-10.716 21.934-22.825 20.723-.641-.053-2.13-.283-2.904-.5-9.036-2.235-15.904-10.683-15.904-20.723 0-14.189 0-26.368 0-41.133 0-11.501 9.315-20.816 20.816-20.816 11.491 0 20.816 9.326 20.816 20.816.001 14.561.001 27.072.001 41.633z" fill="#6d67dc"/><path d="m219.571 73.857c0 11.5-9.318 20.816-20.816 20.816-11.364 0-20.259-9.25-20.796-20.265-.036-1.19-.009 3.638-.021-42.184 0-11.501 9.315-20.816 20.816-20.816 11.491 0 20.816 9.326 20.816 20.816.001 14.561.001 27.072.001 41.633z" fill="#6d67dc"/><path d="m334.061 73.857c0 12.079-10.245 21.47-21.888 20.785-1.07-.036-2.808-.273-3.841-.562-9.036-2.235-15.904-10.683-15.904-20.723 0-14.189 0-26.368 0-41.133 0-11.501 9.315-20.816 20.816-20.816 11.491 0 20.816 9.326 20.816 20.816.001 14.561.001 27.072.001 41.633z" fill="#6d67dc"/><path d="m448.551 73.857c0 11.542-9.372 20.816-20.816 20.816-11.663 0-20.816-9.771-20.816-21.316 0-14.189 0-26.368 0-41.133 0-11.501 9.315-20.816 20.816-20.816 11.491 0 20.816 9.326 20.816 20.816z" fill="#6d67dc"/><g fill="#7be2f6"><path d="m63.449 302.837h41.633c5.748 0 10.408-4.66 10.408-10.408s-4.66-10.408-10.408-10.408h-31.225v-62.449h31.224c5.748 0 10.408-4.66 10.408-10.408s-4.66-10.408-10.408-10.408h-41.632c-5.748 0-10.408 4.66-10.408 10.408v83.265c0 5.747 4.66 10.408 10.408 10.408z"/><path d="m365.286 219.571c5.748 0 10.408-4.66 10.408-10.408s-4.66-10.408-10.408-10.408h-41.633c-5.748 0-10.408 4.66-10.408 10.408v83.265c0 5.748 4.66 10.408 10.408 10.408h41.633c5.748 0 10.408-4.66 10.408-10.408s-4.66-10.408-10.408-10.408h-31.224v-62.449z"/><path d="m198.755 198.755c-5.748 0-10.408 4.66-10.408 10.408v31.224h-31.224v-31.224c0-5.748-4.66-10.408-10.408-10.408s-10.408 4.66-10.408 10.408v83.265c0 5.748 4.66 10.408 10.408 10.408s10.408-4.66 10.408-10.408v-31.224h31.224v31.224c0 5.748 4.66 10.408 10.408 10.408s10.408-4.66 10.408-10.408v-83.265c0-5.748-4.66-10.408-10.408-10.408z"/><path d="m282.02 219.571c5.748 0 10.408-4.66 10.408-10.408s-4.66-10.408-10.408-10.408h-41.633c-5.748 0-10.408 4.66-10.408 10.408v83.265c0 5.748 4.66 10.408 10.408 10.408h41.633c5.748 0 10.408-4.66 10.408-10.408s-4.66-10.408-10.408-10.408h-31.225v-20.816h31.225c5.748 0 10.408-4.66 10.408-10.408s-4.66-10.408-10.408-10.408h-31.225v-20.816h31.225z"/><path d="m428.574 250.796 28.105-35.131c3.591-4.489 2.863-11.038-1.625-14.629-4.489-3.592-11.039-2.862-14.629 1.625l-23.097 28.871v-22.369c0-5.748-4.66-10.408-10.408-10.408s-10.408 4.66-10.408 10.408v83.265c0 5.748 4.66 10.408 10.408 10.408s10.408-4.66 10.408-10.408v-22.369l23.097 28.871c3.608 4.508 10.16 5.2 14.629 1.625 4.489-3.591 5.216-10.141 1.625-14.629z"/><path d="m63.449 344.469c-5.748 0-10.408 4.66-10.408 10.408v83.265c0 5.748 4.66 10.408 10.408 10.408s10.408-4.66 10.408-10.408v-83.265c0-5.747-4.66-10.408-10.408-10.408z"/><path d="m157.122 344.469c-5.748 0-10.408 4.66-10.408 10.408v46.974l-32.806-52.49c-2.462-3.938-7.233-5.768-11.696-4.489-4.463 1.28-7.539 5.362-7.539 10.005v83.265c0 5.748 4.66 10.408 10.408 10.408s10.408-4.66 10.408-10.408v-46.974l32.806 52.49c2.463 3.941 7.234 5.767 11.696 4.488 4.463-1.28 7.539-5.362 7.539-10.005v-83.265c.001-5.746-4.66-10.407-10.408-10.407z"/></g></g></g></g></g></svg>