<svg height="128" viewBox="0 0 128 128" width="128" xmlns="http://www.w3.org/2000/svg"><path d="m113.53 116.4c-6.38.42-10.41-4.46-10.41-4.46-1.22 4.82-4.97 8.29-9.36 8.76h-27.44s-4.31-.15-4.5-4.33c-.14-3.27 3.77-4.59 5.46-5.01h.01c.45-.11.74-.16.74-.16h-9.82v7.14a2.087 2.087 0 0 1 -2.09 2.08h-11.85s-.37.01-.99.02h-.11c-.17 0-.36 0-.57.01-.88.01-2.04.02-3.31.04-1.45.01-3.05.02-4.55.02h-.62c-1.49 0-2.85-.02-3.82-.06-.27 0-.52-.01-.72-.03h-.06c-3.05-.18-3.87-1.3-4.28-4.02s2.39-5.64 2.39-5.64v-12.64l-.39-17.6a5.009 5.009 0 0 1 -1.06-.79.01.01 0 0 1 -.01-.01 5.149 5.149 0 0 1 -.62-.73 8.268 8.268 0 0 1 -1.36-3.89s-2.06-.48-2.06-4.12 1.19-7.43 3.01-9.21l.01-.01a.077.077 0 0 1 -.03-.01 4.514 4.514 0 0 1 -2.59-4.25s-4.69-.66-5.6-4.8c0 0-5.06-1.16-4.51-7.06l-.44-.3c-1.37-1.01-5.35-4.73-3.21-12.54 0 0-2.13-5.54 1.83-9.62a15.207 15.207 0 0 1 10.7-4.82h.01a6.9 6.9 0 0 1 .33-.67 13.436 13.436 0 0 1 9.72-6.69s1.62-5.64 9.57-2.62c7.96-3.02 9.58 2.62 9.58 2.62a13.436 13.436 0 0 1 9.72 6.69 6.9 6.9 0 0 1 .33.67h.01a15.223 15.223 0 0 1 10.7 4.82c3.96 4.08 1.83 9.62 1.83 9.62 2.14 7.87-1.9 11.58-3.25 12.57a4.879 4.879 0 0 1 -.41.27c0 .03.01.07.01.1a6.317 6.317 0 0 1 -2.05 5.64.037.037 0 0 1 .03.01c.23.03.46.07.67.11 3.91.77 5.88 2.54 6.66 4.94a10.947 10.947 0 0 1 8.06 7.18c3.59.82 6.21 3.28 7.93 7.24a4.309 4.309 0 0 1 3.21 2.94c4.41.12 5.8 3.36 5.74 8.06 4.93 5.1 6.19 10.22 3.15 15.38.08.26.16.51.22.76.06.19.1.39.15.6.03.15.06.31.08.46a7.025 7.025 0 0 1 -.11 3.04c3.54-.86 6.31-.22 8.13 2.24 2.98.02 5.38.72 5.6 3.98 5.27 1.82 2.98 7.66-3.39 8.08z" fill="#c29055"/><g fill="#454545"><path d="m26.629 32.178a2.535 2.535 0 0 0 -2.257 2.741 2.534 2.534 0 0 0 2.257 2.74 2.534 2.534 0 0 0 2.257-2.74 2.535 2.535 0 0 0 -2.257-2.741z"/><path d="m30.707 25.44a.25.25 0 0 0 -.168-.311c-3.252-.971-5.515.53-6.725 4.457a.249.249 0 0 0 .165.312.234.234 0 0 0 .074.012.249.249 0 0 0 .238-.177c1.13-3.664 3.125-5.014 6.105-4.125a.249.249 0 0 0 .311-.168z"/><path d="m24.372 44.468a.249.249 0 0 0 .2-.1 4.628 4.628 0 0 1 4.078-1.832.267.267 0 0 0 .253-.2c.3-1.543 1.513-2.152 3.711-1.858a.251.251 0 0 0 .2-.061.248.248 0 0 0 .084-.19 1.35 1.35 0 0 1 .412-1.04c.64-.616 2.028-.876 4.13-.767a.239.239 0 0 0 .263-.237.25.25 0 0 0 -.237-.262c-2.274-.112-3.748.181-4.5.906a1.8 1.8 0 0 0 -.551 1.123c-2.217-.229-3.551.469-3.953 2.086a5.116 5.116 0 0 0 -4.276 2.03.25.25 0 0 0 .046.351.248.248 0 0 0 .14.051z"/><path d="m31.8 31.054a3.013 3.013 0 0 0 2.493-1.895.25.25 0 1 0 -.436-.245c-.785 1.395-1.551 1.844-2.637 1.56a.25.25 0 1 0 -.128.483 2.756 2.756 0 0 0 .708.097z"/><path d="m32.356 63.679a.257.257 0 0 0 .055.006.251.251 0 0 0 .054-.5 3.81 3.81 0 0 1 -2.665-2.006.25.25 0 1 0 -.44.237 4.34 4.34 0 0 0 2.996 2.263z"/><ellipse cx="55.242" cy="34.919" rx="2.257" ry="2.741"/><path d="m26.747 80.808.333 15.192a.5.5 0 0 0 .5.489h.011a.5.5 0 0 0 .489-.51l-.335-15.249a3.55 3.55 0 0 0 1.51.463h.02c.5 1.646 1.556 3.455 3.776 3.753a.183.183 0 0 0 .033 0 .25.25 0 0 0 .033-.5c-3.758-.5-3.806-6.027-3.806-6.082a.25.25 0 0 0 -.5 0 11.129 11.129 0 0 0 .32 2.307 6.3 6.3 0 0 1 -2.576-1.294 6.935 6.935 0 0 1 -1.869-4.341.509.509 0 0 0 -.376-.426c-.068-.018-1.68-.483-1.68-3.635 0-3.575 1.18-7.219 2.868-8.862a.433.433 0 0 0 .058-.094 14.794 14.794 0 0 0 4.744 1.851.216.216 0 0 0 .051.006.25.25 0 0 0 .049-.495 14.481 14.481 0 0 1 -5.058-2.081c-.333-.213-.646-.425-.942-.633a3.929 3.929 0 0 1 -1.361-3.152.5.5 0 0 0 -.43-.5c-.171-.025-4.046-.631-5.068-4.019 0-.009.008-.017.007-.027a12.409 12.409 0 0 1 -.148-2.069.249.249 0 0 0 -.24-.259.263.263 0 0 0 -.26.24 11.954 11.954 0 0 0 .043 1.3 5.653 5.653 0 0 1 -4.057-5.455 6.55 6.55 0 0 1 .026-.931 7.978 7.978 0 0 1 2.3-3.184c2.156-1.411 2.321-6.552 2.326-6.77a.25.25 0 0 0 -.243-.257h-.007a.25.25 0 0 0 -.25.243c0 .051-.161 5.1-2.113 6.375a8.34 8.34 0 0 0 -2.306 2.971c-.43-.261-5.713-3.679-3.37-12.246a.5.5 0 0 0 -.015-.311c-.02-.053-1.973-5.287 1.722-9.093a14.664 14.664 0 0 1 10.2-4.67 12.081 12.081 0 0 0 -.256 1.757.251.251 0 0 0 .234.266h.016a.25.25 0 0 0 .249-.234 10.924 10.924 0 0 1 .357-2.07c0-.009.015-.013.019-.023a12.892 12.892 0 0 1 9.666-7.055.5.5 0 0 0 .4-.356 4.649 4.649 0 0 1 2.3-2.592c1.668-.834 3.894-.733 6.616.3a.494.494 0 0 0 .355 0c2.719-1.031 4.944-1.136 6.611-.308a4.707 4.707 0 0 1 2.312 2.6.5.5 0 0 0 .4.354 12.892 12.892 0 0 1 9.665 7.057c0 .011.016.015.021.025a10.964 10.964 0 0 1 .356 2.068.25.25 0 0 0 .249.234h.016a.251.251 0 0 0 .234-.266 12.061 12.061 0 0 0 -.262-1.752 14.69 14.69 0 0 1 10.2 4.67c3.684 3.8 1.741 9.04 1.722 9.093a.5.5 0 0 0 -.016.31c2.337 8.576-2.833 11.922-3.371 12.243a8.322 8.322 0 0 0 -2.319-2.974c-1.937-1.269-2.1-6.315-2.1-6.366a.251.251 0 0 0 -.25-.243h-.007a.25.25 0 0 0 -.243.257c0 .218.17 5.359 2.314 6.761a7.965 7.965 0 0 1 2.3 3.165 7.517 7.517 0 0 1 .034.927 5.677 5.677 0 0 1 -1.489 3.9 6.6 6.6 0 0 1 -1.96 1.158 7.944 7.944 0 0 0 .1-1.163.25.25 0 1 0 -.5 0 6.951 6.951 0 0 1 -2.829 5.76 2.859 2.859 0 0 1 -2.89.184.25.25 0 0 0 -.355.287 4.755 4.755 0 0 1 -1.355 4.029 7.123 7.123 0 0 1 -6.151 2.521.246.246 0 0 0 -.276.221.25.25 0 0 0 .221.276 7.084 7.084 0 0 0 .783.043 7.7 7.7 0 0 0 5.8-2.734 5.611 5.611 0 0 0 1.538-4.011 3.385 3.385 0 0 0 2.938-.39 7.033 7.033 0 0 0 2.876-4.488 4.383 4.383 0 0 0 1.532-.7.492.492 0 0 0 .357.283c3.842.6 6.118 2.142 6.961 4.721a.5.5 0 0 0 .359.331 10.382 10.382 0 0 1 7.463 6.322 6.426 6.426 0 0 0 -1.969-.644.243.243 0 0 0 -.285.21.251.251 0 0 0 .21.284c1.966.291 3.74 1.587 5.421 3.961a.25.25 0 0 0 .409-.289 13.619 13.619 0 0 0 -2.026-2.317 10.168 10.168 0 0 1 5.182 4.276.5.5 0 0 0 .844-.538 11.01 11.01 0 0 0 -6.7-5 11.357 11.357 0 0 0 -8.044-7.174c-.952-2.589-3.157-4.219-6.718-4.962a6.72 6.72 0 0 0 1.554-4.333c.008-.277 0-.555-.016-.83 1.215-.848 5.865-4.724 3.659-13.074.333-.977 1.81-6.071-2-9.989a15.908 15.908 0 0 0 -10.742-4.975 13.733 13.733 0 0 0 -10-7.3 5.7 5.7 0 0 0 -2.7-2.9c-1.893-.946-4.331-.881-7.253.193-2.915-1.074-5.352-1.14-7.242-.194a5.7 5.7 0 0 0 -2.7 2.9 13.735 13.735 0 0 0 -10 7.3 15.886 15.886 0 0 0 -10.749 4.976c-3.8 3.918-2.327 9.011-1.994 9.989-2.211 8.351 2.442 12.227 3.658 13.079a7.183 7.183 0 0 0 -.006.878 6.644 6.644 0 0 0 4.618 6.322c.931 3.485 4.319 4.547 5.525 4.818a4.913 4.913 0 0 0 2.311 3.98c-1.644 1.983-2.718 5.52-2.718 9.086 0 3.113 1.427 4.158 2.1 4.479.447 3.075 1.828 4.597 3.017 5.345z"/><path d="m117.39 107.96c-.4-3.5-3.257-4.069-5.821-4.117-1.757-2.224-4.351-3.028-7.726-2.4a9.065 9.065 0 0 0 -.449-4.151 10.886 10.886 0 0 0 .552-10.312.5.5 0 1 0 -.912.41 9.834 9.834 0 0 1 -.574 9.514 7.236 7.236 0 0 0 -1.082-1.662.25.25 0 0 0 -.36.346c.2.212 4.9 5.274-1.63 12.349a.25.25 0 0 0 .013.353.255.255 0 0 0 .17.066.249.249 0 0 0 .184-.08 13.017 13.017 0 0 0 3.3-5.7.5.5 0 0 0 .254 0c3.473-.843 5.963-.173 7.609 2.051a.5.5 0 0 0 .4.2c3.458.023 4.938 1.041 5.1 3.514a.5.5 0 0 0 .336.438c1.817.628 2.752 1.791 2.564 3.189-.238 1.773-2.314 3.688-5.824 3.92-5.994.407-9.952-4.233-9.992-4.28a.5.5 0 0 0 -.869.2c-1.157 4.568-4.744 7.938-8.876 8.383h-25.416c-1.035-1.308-1.338-2.516-.869-3.5.71-1.489 3.114-2.413 6.273-2.413a.25.25 0 0 0 0-.5c-3.353 0-5.931 1.034-6.725 2.7-.367.768-.5 2.023.7 3.713h-1.381c-.157-.007-3.854-.195-4.02-3.852-.158-3.673 5.73-4.645 5.789-4.655a.493.493 0 0 0 .254-.131c2.161-.287 7.916-.845 10.24.994a.5.5 0 1 0 .622-.784c-3.214-2.541-11.46-1.144-11.866-1.073h-8.57a8.329 8.329 0 0 0 -.821-5.4 9.529 9.529 0 0 0 1.188-5.6c1.182 1.015 3.811 2.617 8.655 2.617.752 0 1.559-.039 2.421-.125a.249.249 0 0 0 .225-.273.252.252 0 0 0 -.273-.224c-6.95.688-10.144-1.8-11.089-2.744a18.85 18.85 0 0 0 -.37-2.2l1.689-9.8a.5.5 0 1 0 -.986-.17l-1.7 9.895a.494.494 0 0 0 0 .2c.809 3.454.559 6.118-.765 8.14a.5.5 0 0 0 0 .541 7.577 7.577 0 0 1 .763 5.546.281.281 0 0 0 0 .029.4.4 0 0 0 -.012.06v7.14a1.587 1.587 0 0 1 -1.59 1.58h-9.278a5.43 5.43 0 0 1 -1.389-3.7 4.219 4.219 0 0 1 1.823-2.737.251.251 0 0 0 -.311-.393 4.68 4.68 0 0 0 -2.009 3.075 5.6 5.6 0 0 0 1.264 3.758h-1.962-.285-1.523c-.018 0-.035 0-.053 0-1.855-2.046-1.862-3.7-1.674-4.524a2.538 2.538 0 0 1 1.469-1.879.25.25 0 0 0 -.168-.471 3.067 3.067 0 0 0 -1.788 2.238c-.2.865-.223 2.539 1.44 4.574a4.544 4.544 0 0 1 -3.16-1.943 4.605 4.605 0 0 1 .728-5.794 3.576 3.576 0 0 0 1.266-2.859l-.471-22.04a.483.483 0 0 0 -.51-.489.5.5 0 0 0 -.49.511l.471 22.04a2.577 2.577 0 0 1 -.9 2.064 5.6 5.6 0 0 0 -.929 7.12 5.29 5.29 0 0 0 1.539 1.515c-1.435.013-3.01.023-4.491.024a5.521 5.521 0 0 1 -1.457-3.792 4.223 4.223 0 0 1 1.825-2.72.251.251 0 1 0 -.311-.393 4.672 4.672 0 0 0 -2.009 3.075 5.688 5.688 0 0 0 1.326 3.846c-1.517 0-2.892-.018-3.855-.053-1.886-2.061-1.893-3.729-1.7-4.557a2.54 2.54 0 0 1 1.469-1.879.25.25 0 0 0 -.168-.471 3.067 3.067 0 0 0 -1.788 2.238c-.2.874-.219 2.572 1.494 4.635-2.8-.166-3.436-1.086-3.814-3.6-.368-2.441 2.23-5.192 2.256-5.22a.5.5 0 0 0 .139-.345v-5.61a.5.5 0 0 0 -1 0v5.415c-.589.661-2.776 3.315-2.384 5.91.41 2.725 1.288 4.24 4.741 4.444 2.809.184 12.659.036 14.5.006h.289.025 11.81a2.588 2.588 0 0 0 2.59-2.58v-6.641h6.061c-1.753.824-3.555 2.266-3.451 4.693.209 4.587 4.935 4.8 5 4.807h27.493a11.676 11.676 0 0 0 9.544-8.276 13.615 13.615 0 0 0 10.206 3.978c4.045-.267 6.457-2.609 6.749-4.785.242-1.802-.846-3.337-2.922-4.157z"/><path d="m96.294 74.806a4.869 4.869 0 0 1 2.628 3.75.5.5 0 0 0 .487.394.492.492 0 0 0 .107-.011.5.5 0 0 0 .382-.595 5.861 5.861 0 0 0 -3.192-4.444.5.5 0 0 0 -.412.911z"/><path d="m57.818 29.91a.234.234 0 0 0 .074-.012.249.249 0 0 0 .165-.312c-1.21-3.927-3.473-5.426-6.725-4.457a.25.25 0 0 0 .143.479c2.976-.887 4.975.46 6.1 4.125a.249.249 0 0 0 .243.177z"/><path d="m44.409 37.92a.25.25 0 0 0 -.237.262.232.232 0 0 0 .263.237c2.1-.108 3.489.152 4.13.767a1.35 1.35 0 0 1 .412 1.04.25.25 0 0 0 .083.19.255.255 0 0 0 .2.061c2.2-.295 3.415.314 3.711 1.858a.254.254 0 0 0 .253.2 4.636 4.636 0 0 1 4.076 1.835.25.25 0 1 0 .4-.3 5.116 5.116 0 0 0 -4.276-2.03h-.005c-.4-1.617-1.731-2.319-3.953-2.086a1.8 1.8 0 0 0 -.551-1.123c-.758-.731-2.233-1.031-4.506-.911z"/><path d="m50.074 31.054a2.762 2.762 0 0 0 .708-.1.25.25 0 0 0 -.128-.483c-1.085.287-1.853-.165-2.638-1.56a.25.25 0 1 0 -.435.245 3.012 3.012 0 0 0 2.493 1.898z"/><path d="m40.935 50.666c.693.932 3 3.765 5.4 3.765a6.876 6.876 0 0 0 3.8-1.524.25.25 0 0 0 -.319-.384 6.5 6.5 0 0 1 -3.481 1.408c-2.374 0-4.8-3.29-5.149-3.772v-4.32a4.328 4.328 0 0 0 3.7-4.1c0-1.84-3.94-2.18-3.94-2.18s-3.95.34-3.95 2.18a4.33 4.33 0 0 0 3.7 4.1v4.321c-.343.482-2.774 3.772-5.148 3.772a6.5 6.5 0 0 1 -3.481-1.408.25.25 0 0 0 -.319.384 6.872 6.872 0 0 0 3.8 1.524c2.39-.001 4.695-2.832 5.387-3.766z"/><path d="m49.46 63.685a.264.264 0 0 0 .055-.006 4.344 4.344 0 0 0 3-2.263.25.25 0 1 0 -.44-.237 3.81 3.81 0 0 1 -2.666 2.011.251.251 0 0 0 .055.5z"/><path d="m33.964 81.214a.25.25 0 0 0 -.5 0c0 .055.044 5.4 3.815 5.909h.034a.25.25 0 0 0 .033-.5c-3.338-.443-3.382-5.359-3.382-5.409z"/></g></svg>