<svg xmlns="http://www.w3.org/2000/svg" id="Layer_1" data-name="Layer 1" viewBox="222.02 272.12 463.76 367.31">
  <defs>
    <style>
      .cls-1 {
        fill: #085953;
      }
    </style>
  </defs>
  <path class="cls-1" d="M453.4,425.79c-5.11,1.13-3.73,9.16,1.59,8.53,5.71-.68,4.36-9.84-1.59-8.53Z"/>
  <path class="cls-1" d="M527.97,359.78h.28c3.93-.03,13.5-1.7,16.69-4.25,1.26-1.01,1.42-2.01,1.32-2.68-.27-1.85-2.55-2.78-4.56-3.59-.51-.21-.98-.39-1.28-.56-9.6-5.32-15.81-14.97-16.6-25.83-.79-10.85,3.74-20.87,12.44-27.49.46-.35,1.35-.88,2.27-1.42,2.03-1.22,2.97-1.8,3.39-2.32.8-.98.82-1.86.69-2.42-.14-.62-.6-1.5-2-2.16-9.04-4.31-23.31-1.98-31.33,2.65-15.25,8.78-22.14,25.42-17.54,42.39,4.57,16.85,18.76,27.7,36.21,27.7Z"/>
  <path class="cls-1" d="M475.46,503.24l-13.84,5.1,1.24,9.15,2.82,20.81c4.22.92,7.8.65,10.82-.5,1.65-.63,3.13-1.53,4.46-2.64,4.48-3.73,7.18-9.9,8.54-16.63.87-4.3,1.19-8.82,1.07-13.09-.07-2.65-.3-5.19-.68-7.52l-14.43,5.32Z"/>
  <path class="cls-1" d="M530.67,626.93c25.93,0,209.08-15.45,139.39-14.3-54.67.9-241.98,1.79-285.77-.07l116.65-3.83c18.7-15.38,39.12-30.78,24.04-53.31-1.78-2.67-4.05-5.43-6.89-8.31-5.01-2.5-15.13,7.32-24,6.66-.95-.07-1.99-.35-3.09-.77-1.43-.55-2.98-1.34-4.61-2.28-2.69-1.55-5.62-3.47-8.66-5.3-5.66-3.4-11.72-6.42-17.36-5.91-.58-5.81-1.41-11.42-2.71-16.85-1.98-8.21-5.07-16.02-10.15-23.49-17.23,10.84-23.24,29.15-19.33,46.81,1.54,6.98,4.64,13.86,9.2,20.14-10.34-1.88-14.48-9.87-17.01-18.55-1.32-4.52-2.21-9.23-3.29-13.37-22.78,1.26-44.83,8.44-64.42,19.96-5.87,3.45-11.52,7.29-16.91,11.48.67-16.28,2.59-32.31,7.3-47.59,7.96-25.82,24.31-51.55,46.54-67.28,2.27-1.6,12.32-6.99,13.1-8.03.95-1.26-.3-1.87-.44-3.07-.53-4.53.9-8.57,3.41-11.43,3.27-3.73,8.37-5.46,13.4-3.67,1.06.38,2.12.91,3.15,1.61,1.21.83,2.54,3.07,3.84,2.89l20.54-12.04,9.92-5.81,4.06,1.99,6.07,2.97,32.39-11.09c3.93,5.08,9.15,25.38,8.67,31.72-1.24,16.4-20.48,23.88-29.08,37.88-.59.96-4.41,7.03-3.96,7.46,32.91,5.43,64.55,25.73,81.13,54.9,12.05,21.19,16.61,44.89,16.66,68.87l48.58-11.59-5.97-10.44-41.8-73.42-19.37-34.01c26.74,37.24,55.36,73.04,87.33,105.99l-1.64,16.42,6.82,1.46c-1.62-8.66,1.94-9.47,7.42-14.33-6.89-7.33-3.08-11.52-3.57-20.09l-6.82-1.41-.75,7.46c-56.8-61.9-106.01-131.09-147.02-204.43l-24.22-39.35-18.51-33.04,14.37-19.39-8.81-3.63-7.48,13.9-3.06.92c-3.13-7.24-6.82-20.31-15.79-11.98l12.19,23.92c-51.9,97.96-116.46,188.82-188.18,273.06l-3.93-8.72-5.76-.2c2.65,9.41,5.27,15.88-1.4,24.43l7.36,4.01-.08,5.17,6.04.71.78-16.39c27.27-26.71,48.86-57.98,71.38-88.56,6.17-8.38,12.41-16.71,18.86-24.88l-74.61,129.07,26.88,5.25.19.06c-.2.3-.4.6-.6.9l13.37,3.14,1.2.38,14.83,3.43c-29.68-.28-64.55-.56-86.87-.56-45.38,0-16.21,7.44,53.49,6.86,69.69-.57,181.53,9.15,103.73,12.01-77.8,2.86-152.35,7.44-51.87,7.44s294.17,8.87,269.05,0c-25.12-8.87-113.46-8.58-87.52-8.58ZM468.11,556.48c5.65-1.25,6.93,7.45,1.51,8.09-5.05.6-6.35-7.02-1.51-8.09Z"/>
</svg>