<svg id="Flat" height="512" viewBox="0 0 512 512" width="512" xmlns="http://www.w3.org/2000/svg"><path d="m488 160c0-22.856-17.311-41.967-40.487-46.805-3.84-27.716-30.801-49.195-63.513-49.195-32.284 0-58.971 20.92-63.355 48.11-27.154 1.598-48.645 22.422-48.645 47.89 0 14.761 7.224 27.959 18.579 36.764a63.988 63.988 0 0 0 93.421 85.179 63.982 63.982 0 0 0 90.3-89.486 45.868 45.868 0 0 0 13.7-32.457z" fill="#b1bd70"/><path d="m424 200-24 24v152h-32v-152l-24-24 16-24 24 16 24-16z" fill="#6a9c72"/><path d="m456 472s-24-240-208-240-208 240-208 240z" fill="#ffb632"/><path d="m456 472s-8-32-48-32-48 32-48 32-40-112-112-136c-72 24-112 136-112 136s-8-32-48-32-48 32-48 32" fill="#d1ad8f"/><path d="m328 408c0-120-80-176-80-176s-80 56-80 176z" fill="#d1ad8f"/><path d="m248 360a8 8 0 0 1 -8-8v-120a8 8 0 0 1 16 0v120a8 8 0 0 1 -8 8z" fill="#b3947b"/><path d="m136 120a31.863 31.863 0 0 0 17-4.88 56 56 0 1 1 0-54.24 32 32 0 1 0 -17 59.12z" fill="#ffd33a"/><g fill="#ffe76c"><path d="m232 56a8 8 0 0 1 -8-8v-8a8 8 0 0 1 16 0v8a8 8 0 0 1 -8 8z"/><path d="m216 72h-8a8 8 0 0 1 0-16h8a8 8 0 0 1 0 16z"/><path d="m256 72h-8a8 8 0 0 1 0-16h8a8 8 0 0 1 0 16z"/><path d="m232 96a8 8 0 0 1 -8-8v-8a8 8 0 0 1 16 0v8a8 8 0 0 1 -8 8z"/><path d="m48 192a8 8 0 0 1 -8-8v-8a8 8 0 0 1 16 0v8a8 8 0 0 1 -8 8z"/><path d="m32 208h-8a8 8 0 0 1 0-16h8a8 8 0 0 1 0 16z"/><path d="m72 208h-8a8 8 0 0 1 0-16h8a8 8 0 0 1 0 16z"/><path d="m48 232a8 8 0 0 1 -8-8v-8a8 8 0 0 1 16 0v8a8 8 0 0 1 -8 8z"/></g><path d="m327.98 408.17-7.98 63.83h-144l-7.98-63.83c18.9-29.63 45.84-60.79 79.98-72.17 34.14 11.38 61.08 42.54 79.98 72.17z" fill="#b37a60"/><path d="m488 480h-464a8 8 0 0 1 0-16h464a8 8 0 0 1 0 16z" fill="#b3947b"/></svg>